<svg id="Camada_1" data-name="Camada 1" xmlns="http://www.w3.org/2000/svg" viewBox="0 0 97.9049 27.0428"><defs><style>.cls-1{fill:#fffdff;}.cls-2{fill:#e42a1e;}.cls-3{fill:#fff;}</style></defs><path class="cls-1" d="M99,21.1579,98.9253,5.734A3.3525,3.3525,0,0,0,95.5718,2.4c-48.0594.0107-81.1664.0082-81.5641-.0208a.5122.5122,0,0,0-.4021.1072.5169.5169,0,0,0-.0885.3851,5.7773,5.7773,0,0,0,1.1382,3.0339,19.5371,19.5371,0,0,0,4.4694,4.46c1.08.8333,2.2527,1.5324,3.3592,2.3264a11.74,11.74,0,0,1,3.28,3.3758,7.1067,7.1067,0,0,1-.493,8.1052.7618.7618,0,0,0-.2186.396l70.5992-.043A3.3507,3.3507,0,0,0,99,21.1579Z" transform="translate(-1.0951 -2.3744)"/><path class="cls-2" d="M38.2882,8.16l3.5112,11.3644H38.5076l-.36-1.3481H34.7143L34.37,19.5245H31.0777L34.5889,8.16Zm-1.2069,6.8343-.6427-2.6177L35.78,14.9944Z" transform="translate(-1.0951 -2.3744)"/><path class="cls-2" d="M51.5805,19.5245H48.038Q47.3324,18.49,46.87,17.8708t-.7523-.9326a1.7133,1.7133,0,0,0-.4311-.3762q-.141-.0629-.196.0156a.4111.4111,0,0,0-.0547.2352v2.7117H42.1442V8.16h4.3106a3.3081,3.3081,0,0,1,1.4812.3606,4.5672,4.5672,0,0,1,1.2619.9092,4.043,4.043,0,0,1,.9326,1.4263,4.304,4.304,0,0,1,.29,1.63,4.442,4.442,0,0,1-.3528,1.638,4.5974,4.5974,0,0,1-.9639,1.45Zm-4.3419-7.179a1.0707,1.0707,0,0,0-1.0817-1.0817h-.7523v2.1787h.7523a1.0314,1.0314,0,0,0,.7681-.3213A1.0706,1.0706,0,0,0,47.2386,12.3455Z" transform="translate(-1.0951 -2.3744)"/><path class="cls-2" d="M61.8473,12.7372v6.8343l-3.0879-.0156v-.3293a6.1046,6.1046,0,0,1-1.52.3684,5.7555,5.7555,0,0,1-3.0644-.5016,5.4176,5.4176,0,0,1-1.356-.9014,5.4992,5.4992,0,0,1-1.3794-1.8261,5.94,5.94,0,0,1-.5564-2.1474,5.7807,5.7807,0,0,1,1.4343-4.1773,5.3379,5.3379,0,0,1,1.8417-1.3324,7.27,7.27,0,0,1,4.6556-.4233,5.4078,5.4078,0,0,1,2.0611.9719L58.728,11.6712a3.0649,3.0649,0,0,0-1.1757-.431,3.5879,3.5879,0,0,0-1.16.0158,3.3491,3.3491,0,0,0-.9953.3447,1.8256,1.8256,0,0,0-.6662.5723,3.1994,3.1994,0,0,0-.4468.9092,2.9654,2.9654,0,0,0-.1332.9716,2.4958,2.4958,0,0,0,.2116.9328,2.1755,2.1755,0,0,0,.6036.7916,2.3554,2.3554,0,0,0,.87.5172,2.46,2.46,0,0,0,.9718.1176,2.8174,2.8174,0,0,0,.9562-.2508,2.4615,2.4615,0,0,0,.8229-.6191l.0627-.0783H57.1918l.58-2.7432Z" transform="translate(-1.0951 -2.3744)"/><path class="cls-2" d="M69.7161,8.16l3.5111,11.3644H69.9355l-.36-1.3481H66.1422l-.3448,1.3481H62.5056L66.0168,8.16Zm-1.2069,6.8343-.6427-2.6177-.6584,2.6177Z" transform="translate(-1.0951 -2.3744)"/><path class="cls-2" d="M78.1635,8.16h4.2793v6.8343a4.3453,4.3453,0,0,1-.3606,1.7635,4.5906,4.5906,0,0,1-2.406,2.406,4.3418,4.3418,0,0,1-1.7634.3606H76.7684l.8777-3.2918h.1413a1.3428,1.3428,0,0,0,.9638-.405,1.5062,1.5062,0,0,0,.29-.4285,1.2458,1.2458,0,0,0,.11-.5218v-3.786h-.9875Z" transform="translate(-1.0951 -2.3744)"/><path class="cls-2" d="M88.9636,8.16l3.5111,11.3644H89.1829l-.3605-1.3481H85.39l-.3449,1.3481H81.7531L85.2642,8.16Zm-3.01-.4388q-.22,0-.3212-.0078c-.0682-.0052-.11-.0208-.1254-.0474s-.0055-.06.0315-.1025.0806-.0944.1331-.1576l1.7713-2.2073a.5169.5169,0,0,1,.3606-.2049h1.9749a.3683.3683,0,0,1,.2508.071q.0785.0709-.0156.15L87.7722,7.5322a1.0776,1.0776,0,0,1-.2037.15.4514.4514,0,0,1-.2039.04Zm1.8028,7.2731-.6428-2.6177-.6582,2.6177Z" transform="translate(-1.0951 -2.3744)"/><path class="cls-3" d="M30.2582,29.1281l-.321-.7247h-1.08l-.3507.7779h-.71l1.5982-3.4325,1.5983,3.4325h-.712ZM29.1168,27.821h.57l-.2848-.6482Z" transform="translate(-1.0951 -2.3744)"/><path class="cls-3" d="M32.5644,27.9337v1.2476h-.6355V25.989h.7736q.168,0,.339.017a1.012,1.012,0,0,1,.3178.0829.7956.7956,0,0,1,.4527.6036,1.2168,1.2168,0,0,1,.0233.2338,1.0747,1.0747,0,0,1-.051.3294.7351.7351,0,0,1-.5759.525.4541.4541,0,0,1,.29.1764,2.353,2.353,0,0,1,.2284.356q.1106.2072.2338.44a1.9487,1.9487,0,0,0,.3082.4283H33.51a1.0581,1.0581,0,0,1-.236-.3263q-.0914-.1923-.1838-.3793a1.9056,1.9056,0,0,0-.2115-.338A.5834.5834,0,0,0,32.5644,27.9337Zm.0318-.6589q.1084,0,.253-.0127a.4351.4351,0,0,0,.2125-.0617.2881.2881,0,0,0,.0935-.2508.4982.4982,0,0,0-.03-.1806.2908.2908,0,0,0-.2338-.1594,1.4667,1.4667,0,0,0-.2955-.0234Z" transform="translate(-1.0951 -2.3744)"/><path class="cls-3" d="M37.9162,27.46v.4867a1.4178,1.4178,0,0,1-.0871.4825,1.1973,1.1973,0,0,1-.7673.74,1.8071,1.8071,0,0,1-.48.085q-.07.0043-.1381.0043A2.3225,2.3225,0,0,1,36.08,29.23a1.47,1.47,0,0,1-1.2178-.9777,1.7848,1.7848,0,0,1-.1212-.6631l-.0021-.0043a1.68,1.68,0,0,1,.1275-.6567,1.5463,1.5463,0,0,1,.3656-.54,1.58,1.58,0,0,1,.5462-.3485,1.9269,1.9269,0,0,1,.6738-.119h.0063a1.5689,1.5689,0,0,1,.661.1381,1.4277,1.4277,0,0,1,.2827.1764,1.5406,1.5406,0,0,1,.1637.15q.0658.0712.1445.1648l-.4974.3762q-.0531-.06-.0967-.1063a.9978.9978,0,0,0-.1073-.0978.88.88,0,0,0-.5568-.1785.99.99,0,0,0-.7375.289,1.0171,1.0171,0,0,0-.2848.7524,1.0485,1.0485,0,0,0,.2848.7694.9914.9914,0,0,0,.7417.2912,1.412,1.412,0,0,0,.3241-.0372.692.692,0,0,0,.2816-.1371.5556.5556,0,0,0,.2062-.4208h-.7226V27.46Z" transform="translate(-1.0951 -2.3744)"/><path class="cls-3" d="M40.8813,29.1281l-.3209-.7247h-1.08l-.3507.7779h-.71l1.5983-3.4325,1.5983,3.4325h-.712ZM39.74,27.821h.57l-.2848-.6482Z" transform="translate(-1.0951 -2.3744)"/><path class="cls-3" d="M44.5543,28.0208l-.6695,1.16-.6652-1.15v1.15h-.6674v-3.43l1.3326,2.27,1.3327-2.27v3.43h-.6653Z" transform="translate(-1.0951 -2.3744)"/><path class="cls-3" d="M48.614,29.1281l-.3209-.7247h-1.08l-.3507.7779h-.71l1.5983-3.4325,1.5983,3.4325h-.712ZM47.4727,27.821h.57l-.2848-.6482Z" transform="translate(-1.0951 -2.3744)"/><path class="cls-3" d="M50.595,28.1845a.773.773,0,0,0,.1711.3294.4673.4673,0,0,0,.356.1212.43.43,0,0,0,.2774-.0893.3274.3274,0,0,0,.1116-.2721q0-.1848-.2381-.3071t-.3911-.2051a2.1714,2.1714,0,0,1-.5122-.3677.7192.7192,0,0,1-.2125-.5441v-.0382a.87.87,0,0,1,.3018-.6376.9469.9469,0,0,1,.6546-.2529h.0255a1.1785,1.1785,0,0,1,.526.1179,1.0078,1.0078,0,0,1,.3794.3815l-.4506.4a1.0316,1.0316,0,0,0-.1827-.2168.3625.3625,0,0,0-.2508-.0914h-.0128a.3615.3615,0,0,0-.2178.085.2642.2642,0,0,0-.0946.2147.3058.3058,0,0,0,.1615.2412,3.06,3.06,0,0,0,.3018.186,4.1852,4.1852,0,0,1,.6228.4059.7767.7767,0,0,1,.272.6461v.0128a.8684.8684,0,0,1-.3007.68,1.2072,1.2072,0,0,1-.7386.2848c-.0213.0014-.0432.0021-.0659.0021a1.0809,1.0809,0,0,1-.5568-.1551.9962.9962,0,0,1-.4294-.5037Z" transform="translate(-1.0951 -2.3744)"/><path class="cls-3" d="M53.6217,28.1845a.773.773,0,0,0,.1711.3294.4673.4673,0,0,0,.356.1212.43.43,0,0,0,.2774-.0893.3274.3274,0,0,0,.1116-.2721q0-.1848-.2381-.3071t-.391-.2051a2.172,2.172,0,0,1-.5123-.3677.72.72,0,0,1-.2125-.5441v-.0382a.87.87,0,0,1,.3018-.6376.9469.9469,0,0,1,.6546-.2529h.0255a1.1789,1.1789,0,0,1,.5261.1179,1.0076,1.0076,0,0,1,.3793.3815l-.45.4a1.0321,1.0321,0,0,0-.1828-.2168.3623.3623,0,0,0-.2508-.0914h-.0128a.3615.3615,0,0,0-.2178.085.2642.2642,0,0,0-.0946.2147.3058.3058,0,0,0,.1615.2412,3.06,3.06,0,0,0,.3018.186,4.18,4.18,0,0,1,.6228.4059.7767.7767,0,0,1,.272.6461v.0128a.8684.8684,0,0,1-.3007.68,1.2072,1.2072,0,0,1-.7386.2848q-.0318.0021-.0659.0021a1.0809,1.0809,0,0,1-.5568-.1551.9962.9962,0,0,1-.4294-.5037Z" transform="translate(-1.0951 -2.3744)"/><path class="cls-3" d="M58.3339,29.1281l-.321-.7247h-1.08l-.3506.7779h-.71l1.5983-3.4325,1.5983,3.4325h-.712ZM57.1925,27.821h.57l-.2848-.6482Z" transform="translate(-1.0951 -2.3744)"/><path class="cls-3" d="M60.3149,28.1845a.773.773,0,0,0,.1711.3294.4673.4673,0,0,0,.356.1212.43.43,0,0,0,.2774-.0893.3276.3276,0,0,0,.1115-.2721q0-.1848-.238-.3071t-.3911-.2051a2.1714,2.1714,0,0,1-.5122-.3677.7192.7192,0,0,1-.2125-.5441v-.0382a.87.87,0,0,1,.3018-.6376.9469.9469,0,0,1,.6546-.2529h.0255a1.1785,1.1785,0,0,1,.526.1179,1.0078,1.0078,0,0,1,.3794.3815l-.4506.4a1.0291,1.0291,0,0,0-.1828-.2168.3623.3623,0,0,0-.2507-.0914h-.0128a.3615.3615,0,0,0-.2178.085.2642.2642,0,0,0-.0946.2147.3058.3058,0,0,0,.1615.2412,3.06,3.06,0,0,0,.3018.186,4.1841,4.1841,0,0,1,.6227.4059.7764.7764,0,0,1,.2721.6461v.0128a.8681.8681,0,0,1-.3008.68,1.2067,1.2067,0,0,1-.7385.2848c-.0213.0014-.0432.0021-.0659.0021a1.0813,1.0813,0,0,1-.5569-.1551.9965.9965,0,0,1-.4293-.5037Z" transform="translate(-1.0951 -2.3744)"/><path class="cls-3" d="M64.4684,25.989h1.86v.5929H65.1337V27.16h1.1944v.6079H65.1337v.7991h1.1944v.6143h-1.86Z" transform="translate(-1.0951 -2.3744)"/><path class="cls-3" d="M69.5187,27.9337v1.2476h-.6355V25.989h.7736q.168,0,.339.017a1.012,1.012,0,0,1,.3178.0829.7956.7956,0,0,1,.4527.6036,1.2091,1.2091,0,0,1,.0234.2338,1.0717,1.0717,0,0,1-.0511.3294.7351.7351,0,0,1-.5759.525.4541.4541,0,0,1,.29.1764,2.3609,2.3609,0,0,1,.2285.356q.11.2072.2338.44a1.9482,1.9482,0,0,0,.3081.4283h-.7587a1.0562,1.0562,0,0,1-.2359-.3263q-.0915-.1923-.1839-.3793a1.9056,1.9056,0,0,0-.2115-.338A.5834.5834,0,0,0,69.5187,27.9337Zm.0319-.6589q.1083,0,.2529-.0127A.4351.4351,0,0,0,70.016,27.2.2878.2878,0,0,0,70.11,26.95a.4982.4982,0,0,0-.03-.1806.2907.2907,0,0,0-.2338-.1594,1.4663,1.4663,0,0,0-.2954-.0234Z" transform="translate(-1.0951 -2.3744)"/><path class="cls-3" d="M72.1588,25.989h1.86v.5929H72.824V27.16h1.1945v.6079H72.824v.7991h1.1945v.6143h-1.86Z" transform="translate(-1.0951 -2.3744)"/><path class="cls-3" d="M75.4552,28.4884a.6306.6306,0,0,0,.1.0988.2.2,0,0,0,.1275.0436q.134,0,.1616-.1573a1.3041,1.3041,0,0,0,.0127-.2019V25.989h.661v2.44q0,.831-.7821.831a.9359.9359,0,0,1-.7269-.3422l-.0553-.0595.44-.4421Z" transform="translate(-1.0951 -2.3744)"/><path class="cls-3" d="M78.1123,25.989v1.9192a.8478.8478,0,0,0,.152.54.6183.6183,0,0,0,.5132.1913.6108.6108,0,0,0,.51-.1923.854.854,0,0,0,.1509-.5388V25.989h.6674v1.9659a1.3264,1.3264,0,0,1-2.6525,0V25.989Z" transform="translate(-1.0951 -2.3744)"/><path class="cls-3" d="M81.0414,25.7509l2,2.0574V25.989h.6652v3.4282l-1.9978-2.1424v1.9065h-.6674Z" transform="translate(-1.0951 -2.3744)"/><path class="cls-3" d="M86.11,26.5819v2.5994h-.6652V26.5819h-.8034l.1339-.5929h2l.1339.5929Z" transform="translate(-1.0951 -2.3744)"/><path class="cls-3" d="M87.8451,25.989h1.86v.5929H88.51V27.16h1.1944v.6079H88.51v.7991h1.1944v.6143h-1.86Z" transform="translate(-1.0951 -2.3744)"/><path class="cls-3" d="M91.1334,28.1845a.773.773,0,0,0,.1711.3294.4673.4673,0,0,0,.356.1212.43.43,0,0,0,.2774-.0893.3274.3274,0,0,0,.1116-.2721q0-.1848-.2381-.3071t-.391-.2051a2.172,2.172,0,0,1-.5123-.3677.7192.7192,0,0,1-.2125-.5441v-.0382a.87.87,0,0,1,.3018-.6376.9469.9469,0,0,1,.6546-.2529h.0255a1.1789,1.1789,0,0,1,.5261.1179,1.0076,1.0076,0,0,1,.3793.3815l-.45.4a1.0351,1.0351,0,0,0-.1828-.2168.3623.3623,0,0,0-.2508-.0914H91.686a.3615.3615,0,0,0-.2178.085.2642.2642,0,0,0-.0946.2147.3058.3058,0,0,0,.1615.2412,3.06,3.06,0,0,0,.3018.186,4.1852,4.1852,0,0,1,.6228.4059.7767.7767,0,0,1,.272.6461v.0128a.8684.8684,0,0,1-.3007.68,1.2072,1.2072,0,0,1-.7386.2848c-.0213.0014-.0432.0021-.0659.0021a1.0809,1.0809,0,0,1-.5568-.1551.9962.9962,0,0,1-.4294-.5037Z" transform="translate(-1.0951 -2.3744)"/><path class="cls-1" d="M7.0912,19.14c.9747.97,1.9651,1.942,2.9394,2.93.449.4555.7984.4119,1.0288-.1738q1.1593-2.9462,2.3126-5.8946.9606-2.4529,1.9181-4.9071a.779.779,0,0,0,.0922-.5154.4868.4868,0,0,0-.7082-.2941c-.5842.2181-1.1576.4666-1.7456.6734-1.1768.414-2.3261.8968-3.4834,1.36C8.4,12.7362,7.36,13.1672,6.3,13.5451c-.8637.3082-1.7.68-2.5551,1.0076-.5834.2235-.67.5687-.221.9872.2453.2288,2.9055,2.8443,3.0367,2.944-.3267.3522-1.4068.4972-1.863.9535Q3.0227,21.1135,1.347,22.7891c-.3368.3373-.3354.4422.0013.7845.25.2543.5068.5022.7543.759a.4.4,0,0,0,.6563.0087c1.1965-1.2,2.391-2.4012,3.5976-3.5906C6.6728,20.4388,6.8132,19.4028,7.0912,19.14Z" transform="translate(-1.0951 -2.3744)"/><path class="cls-1" d="M17.355,24.59q2.0618,0,4.1234-.0007c.6643-.0011.8682-.2391.9134-.8892.0745-1.0714-.0312-2.14.0017-3.21.021-.6817-.2371-.93-.9058-.93-2.6981-.0007-5.3962.0051-8.0942-.0046-.2627-.0009-.41.0741-.4642.3274a.2545.2545,0,0,1-.0251.072,6.8718,6.8718,0,0,0-.6249,3.8575.7306.7306,0,0,0,.8377.7739c1.4126.0052,2.8253.0018,4.238.0018Z" transform="translate(-1.0951 -2.3744)"/><path class="cls-1" d="M6.5226,8.0737q-2.0823,0-4.1647.0006c-.6513.0011-.9024.2509-.9037.8981q-.0033,1.6249.0012,3.25c.002.6.26.8534.8629.8611.0382.0005.0767-.003.1146.0007a8.5639,8.5639,0,0,0,4.4376-.8162c1.1543-.5227,2.3539-.9547,3.5529-1.3787.3213-.1136.6336-.2869.9641-.3983.1658-.0559.198-.1725.1966-.326-.0038-.4332.0068-.8668-.0037-1.3a.7216.7216,0,0,0-.8168-.7912C9.35,8.0686,7.9363,8.072,6.5226,8.072Z" transform="translate(-1.0951 -2.3744)"/><path class="cls-1" d="M25.6928,18.7227a6.3115,6.3115,0,0,0-1.286-2.8134,12.1283,12.1283,0,0,0-2.0239-2.0129.7161.7161,0,0,0-.49-.1606c-1.1321.0058-2.2643,0-3.3965.0049-.594.0024-.8683.27-.8715.86q-.0092,1.6605.0019,3.3209c.0037.5394.2656.8337.7771.8357,2.3661.0091,4.7323.0047,7.0984.0036A1.2007,1.2007,0,0,0,25.6928,18.7227Z" transform="translate(-1.0951 -2.3744)"/><path class="cls-1" d="M14.4611,7.403c-1.1317-1.528-2.0661-3.0474-1.9639-4.94a.5848.5848,0,0,0-.4028-.0726Q9.9377,2.3866,7.7809,2.39c-.7153.0009-.9715.2545-.9723.9588q-.0018,1.5852.0012,3.17c.0018.65.2537.9059.9.9069q3.1491.0052,6.2984.0025C14.131,7.4282,14.2537,7.415,14.4611,7.403Z" transform="translate(-1.0951 -2.3744)"/><path class="cls-1" d="M11.5284,23.0449c-.2851.0233-.4219.2475-.6491.2954a1.4817,1.4817,0,0,1-1.4277-.4414q-.8391-.8354-1.6782-1.6708c-.0877-.0868-.1555-.2051-.2229-.2139L3.9874,24.4355c.0675.1051.08.1411.0922.1411,2.2584.0051,4.5169.0128,6.7754.0053a.6828.6828,0,0,0,.7138-.697A2.2728,2.2728,0,0,0,11.5284,23.0449Z" transform="translate(-1.0951 -2.3744)"/><path class="cls-1" d="M15.6357,13.0649h5.4264c-.0053-.1778-.1574-.2011-.2511-.2626a29.9265,29.9265,0,0,1-5.6071-4.5705.4944.4944,0,0,0-.4039-.163c-.5852.0061-1.1707-.0041-1.7559.0056a.7056.7056,0,0,0-.7672.7582c-.0106.3926-.0021.7857-.0021,1.1744.208.08.3464-.0394.4917-.0937.5124-.1915,1.02-.3948,1.5291-.5961a1.53,1.53,0,0,1,2.0124,2.0105C16.0876,11.8929,15.87,12.4591,15.6357,13.0649Z" transform="translate(-1.0951 -2.3744)"/><path class="cls-1" d="M13.3693,18.7535c1.0109,0,1.9625.0161,2.9131-.0075a.6794.6794,0,0,0,.6651-.7449q.0177-1.7473.0014-3.4949a.726.726,0,0,0-.7733-.7653c-.8331-.0378-.8328-.0377-1.1354.737C14.4915,15.8826,13.9424,17.2871,13.3693,18.7535Z" transform="translate(-1.0951 -2.3744)"/><path class="cls-1" d="M25.7722,19.5721c-.7246,0-1.409-.0216-2.0911.0091a.654.654,0,0,0-.5859.6949c-.0093,1.2031-.0063,2.4064.0023,3.61a.881.881,0,0,0,.11.3994c.159.291.3224.2995.5539.0626a7.7652,7.7652,0,0,0,1.7612-2.9595A6.2044,6.2044,0,0,0,25.7722,19.5721Z" transform="translate(-1.0951 -2.3744)"/><path class="cls-3" d="M3.5242,15.54" transform="translate(-1.0951 -2.3744)"/></svg>