<?xml version="1.0" encoding="utf-8"?>
<!-- Generator: Adobe Illustrator 25.3.1, SVG Export Plug-In . SVG Version: 6.00 Build 0)  -->
<svg version="1.1" id="Camada_1" xmlns="http://www.w3.org/2000/svg" xmlns:xlink="http://www.w3.org/1999/xlink" x="0px" y="0px"
	 viewBox="0 0 250.13 83" style="enable-background:new 0 0 250.13 83;" xml:space="preserve">
<style type="text/css">
	.st0{fill-rule:evenodd;clip-rule:evenodd;fill:#FEEB17;}
	.st1{fill-rule:evenodd;clip-rule:evenodd;fill:#1C1A19;}
	.st2{fill-rule:evenodd;clip-rule:evenodd;fill:#FFFFFF;}
	.st3{fill:#1C1A19;}
</style>
<g>
	<path class="st0" d="M4.53,13.34v40.11c0,5.64,2.82,8.46,8.46,8.46H236.3c5.64,0,8.46-2.82,8.46-8.46V13.34
		c0-5.64-2.82-8.46-8.46-8.46H12.98C7.35,4.88,4.53,7.7,4.53,13.34L4.53,13.34z M4.53,13.34"/>
	<path class="st1" d="M12.49,12.78h31.85v8.01l-8.78-5.96L22.81,32.26H12.49V12.78z M12.49,12.78"/>
	<path class="st2" d="M50.88,25.23l-15.31-10.4l11.6,30.5h9.93l-6.21-7.18V25.23z M50.88,25.23"/>
	<path class="st1" d="M22.94,45.33c6.67,0,12.08,1.05,12.08,2.34c0,0.95-2.94,1.8-7.46,2.16c-4.51,0.36-9.71,0.16-13.16-0.51
		c-3.45-0.67-4.49-1.68-2.62-2.55C13.65,45.9,18.05,45.33,22.94,45.33L22.94,45.33z M22.94,45.33"/>
	<path class="st2" d="M19.51,26.14c6.26,0,11.34,5.08,11.34,11.34c0,4.59-2.76,8.72-7,10.48c-4.24,1.76-9.12,0.79-12.36-2.46
		c-3.24-3.24-4.21-8.12-2.46-12.36C10.79,28.91,14.92,26.14,19.51,26.14L19.51,26.14z M19.51,26.14"/>
	<path class="st1" d="M53.11,33.75c0,6.68,7.03,8.26,11.31,4.15v-4.86c0-3.55-1.9-5.74-5.7-5.74
		C54.92,27.31,53.11,30.07,53.11,33.75L53.11,33.75z M70.7,33.29v20.78h-6.28V44.03c-7.41,4.34-17.58,0.42-17.58-10.27
		c0-6.87,4.23-12.05,11.88-12.05C66.46,21.71,70.7,26.51,70.7,33.29L70.7,33.29z M70.7,33.29"/>
	<path class="st1" d="M216.58,20.02c-1.77,0-3.57-1.16-3.57-3.48c0-2.36,1.8-3.52,3.57-3.52c1.81,0,3.57,1.16,3.57,3.52
		C220.15,18.86,218.39,20.02,216.58,20.02L216.58,20.02z M216.58,20.02"/>
	<rect x="213.52" y="22.21" class="st1" width="6.12" height="22.86"/>
	<path class="st1" d="M236,22.39v5.19h-7v9.18c0,3.99,4.22,3.85,7.61,3.15v5.24c-7.24,1.86-13.73-0.09-13.73-7.7V16.03h6.21v6.35
		H236z M236,22.39"/>
	<rect x="203.93" y="13.31" class="st1" width="6.12" height="31.76"/>
	<path class="st1" d="M183.97,33.67c0,3.62,1.92,6.35,5.78,6.35c3.85,0,5.83-2.73,5.83-6.35c0-3.62-1.97-6.45-5.83-6.45
		C185.89,27.22,183.97,30.05,183.97,33.67L183.97,33.67z M201.78,33.67c0,6.82-4.37,11.96-12.03,11.96s-11.98-5.15-11.98-11.96
		c0-6.82,4.51-12.01,11.98-12.01C197.22,21.66,201.78,26.85,201.78,33.67L201.78,33.67z M201.78,33.67"/>
	<path class="st1" d="M165.49,39.69h11.41v5.38h-19.48v-4.96l10.85-12.52h-10.53v-5.38h18.88v5.29L165.49,39.69z M165.49,39.69"/>
	<path class="st1" d="M154.89,22.21v5.19h-7v9.18c0,3.99,4.22,3.85,7.61,3.15v5.24c-7.23,1.86-13.73-0.09-13.73-7.7V15.85h6.21v6.35
		H154.89z M154.89,22.21"/>
	<path class="st1" d="M139.06,27.72c-3.01,0-6.54,0.55-9.04,2.04v15.26h-6.08V25.77c4.03-2.41,9-4.17,15.12-4.17V27.72z
		 M139.06,27.72"/>
	<path class="st1" d="M114.26,27.91c-7.35-2.37-10.95,2.13-10.95,6.58c0,3.34,1.66,5.79,4.98,5.79c2.8,0,4.98-2.22,5.97-3.85V27.91z
		 M114.26,45.07v-2.23c-1.47,1.34-3.51,2.78-7.39,2.78c-5.4,0-9.81-3.71-9.81-10.85c0-13.22,14.12-15.3,23.51-11.13v21.43H114.26z
		 M114.26,45.07"/>
	<path class="st1" d="M95.41,34.92c0,7.59-4.61,10.81-11.11,10.81c-6.45,0-11.11-3.22-11.11-10.81V22.2h6.26v12.86
		c0,3.08,1.37,4.98,4.85,4.98c3.53,0,4.89-1.91,4.89-4.98V22.2h6.21V34.92z M95.41,34.92"/>
	<path class="st3" d="M158.5,69.76c-0.4-0.07-0.79-0.1-1.17-0.1c-0.89,0-1.59,0.21-2.1,0.62c-0.51,0.42-0.76,0.98-0.76,1.7
		c0,0.62,0.18,1.11,0.55,1.46c0.37,0.35,0.96,0.61,1.79,0.77l0.67,0.13c0.56,0.11,0.96,0.28,1.21,0.51
		c0.25,0.23,0.37,0.54,0.37,0.94c0,0.46-0.17,0.81-0.51,1.06c-0.34,0.25-0.83,0.37-1.46,0.37c-0.42,0-0.84-0.06-1.27-0.19
		c-0.43-0.13-0.87-0.32-1.32-0.57v1.14c0.47,0.17,0.92,0.3,1.35,0.39c0.44,0.09,0.85,0.13,1.23,0.13c1.02,0,1.8-0.2,2.33-0.61
		c0.53-0.41,0.79-1.01,0.79-1.8c0-0.66-0.2-1.19-0.59-1.59c-0.39-0.4-1-0.67-1.82-0.83l-0.67-0.14c-0.6-0.11-1.02-0.26-1.23-0.45
		c-0.22-0.18-0.32-0.46-0.32-0.82c0-0.43,0.16-0.76,0.49-0.99c0.33-0.23,0.79-0.35,1.39-0.35c0.35,0,0.7,0.05,1.08,0.15
		c0.37,0.1,0.77,0.25,1.19,0.45v-1.08C159.3,69.93,158.89,69.83,158.5,69.76L158.5,69.76z"/>
	<path class="st3" d="M166.38,74.95h-3l1.5-4.06L166.38,74.95L166.38,74.95z M161.14,77.96h1.16l0.74-2.09h3.68l0.74,2.09h1.15
		l-3.11-8.16h-1.25L161.14,77.96L161.14,77.96z M169.8,77.96h1.1V69.8h-1.1V77.96L169.8,77.96z M173.1,77.96h1.07v-6.82l3.62,6.82
		h1.49V69.8h-1.07v6.82l-3.62-6.82h-1.49V77.96L173.1,77.96z M180.34,70.73h2.9v7.23h1.11v-7.23h2.9V69.8h-6.9V70.73L180.34,70.73z"
		/>
	<polygon class="st3" points="186.72,75.34 189.67,75.34 189.67,74.45 186.72,74.45 186.72,75.34 	"/>
	<path class="st3" d="M196.46,77.11c-0.31,0.07-0.65,0.1-1.04,0.1c-1,0-1.75-0.28-2.25-0.84c-0.5-0.56-0.75-1.39-0.75-2.49
		c0-1.1,0.25-1.93,0.75-2.49c0.5-0.56,1.25-0.84,2.25-0.84c0.51,0,0.99,0.09,1.45,0.26c0.46,0.17,0.89,0.44,1.3,0.78v-1.17
		c-0.4-0.25-0.85-0.45-1.32-0.58c-0.48-0.13-0.98-0.2-1.52-0.2c-1.27,0-2.27,0.37-2.99,1.12c-0.72,0.74-1.08,1.78-1.08,3.12
		c0,1.33,0.36,2.37,1.08,3.11c0.72,0.74,1.72,1.12,2.99,1.12c0.58,0,1.13-0.08,1.64-0.23s0.98-0.38,1.41-0.69v-3.5h-2.9v0.91h1.8
		v2.19C197.04,76.94,196.77,77.04,196.46,77.11L196.46,77.11z M205.61,71.45c0.47,0.6,0.7,1.41,0.7,2.44c0,1.03-0.23,1.84-0.7,2.44
		c-0.47,0.6-1.1,0.9-1.9,0.9c-0.8,0-1.44-0.3-1.91-0.9c-0.47-0.6-0.71-1.41-0.71-2.44c0-1.03,0.24-1.84,0.71-2.44
		c0.47-0.6,1.11-0.9,1.91-0.9C204.5,70.55,205.14,70.85,205.61,71.45L205.61,71.45z M200.95,70.81c-0.69,0.77-1.03,1.79-1.03,3.08
		c0,1.29,0.34,2.32,1.03,3.08c0.69,0.76,1.6,1.15,2.75,1.15c1.14,0,2.06-0.38,2.74-1.15c0.68-0.77,1.03-1.79,1.03-3.08
		c0-1.29-0.34-2.32-1.03-3.08c-0.68-0.77-1.6-1.15-2.74-1.15C202.56,69.66,201.64,70.04,200.95,70.81L200.95,70.81z M212.07,74.06
		c0.59,0,1.03,0.12,1.32,0.36c0.29,0.24,0.43,0.62,0.43,1.13c0,0.51-0.14,0.88-0.43,1.13c-0.29,0.25-0.73,0.37-1.32,0.37h-1.77
		v-2.99H212.07L212.07,74.06z M211.93,70.71c0.54,0,0.94,0.1,1.2,0.31c0.26,0.2,0.4,0.51,0.4,0.92c0,0.42-0.13,0.72-0.4,0.93
		c-0.26,0.2-0.67,0.3-1.2,0.3h-1.63v-2.46H211.93L211.93,70.71z M209.2,77.96h2.93c0.91,0,1.62-0.2,2.11-0.6
		c0.5-0.4,0.74-0.96,0.74-1.69c0-0.55-0.15-1.02-0.45-1.38c-0.3-0.37-0.72-0.61-1.26-0.73c0.45-0.07,0.79-0.26,1.03-0.55
		c0.23-0.29,0.35-0.69,0.35-1.19c0-0.64-0.23-1.14-0.68-1.49c-0.46-0.35-1.1-0.52-1.94-0.52h-2.82V77.96L209.2,77.96z M221.1,74.95
		h-3l1.5-4.06L221.1,74.95L221.1,74.95z M215.86,77.96h1.16l0.74-2.09h3.68l0.74,2.09h1.15l-3.11-8.16h-1.25L215.86,77.96
		L215.86,77.96z M224.52,77.96h1.1V69.8h-1.1V77.96L224.52,77.96z M227.82,77.96h1.07v-6.82l3.62,6.82H234V69.8h-1.07v6.82
		l-3.62-6.82h-1.49V77.96L227.82,77.96z"/>
</g>
</svg>
